<svg width="37" height="37" viewBox="0 0 37 37" fill="none" xmlns="http://www.w3.org/2000/svg">
<path d="M18.5 0C8.26333 0 0 8.26333 0 18.5C0 28.7367 8.26333 37 18.5 37C28.7367 37 37 28.7367 37 18.5C37 8.26333 28.7367 0 18.5 0ZM28.9833 10.6067L17.76 28.7367C17.39 29.3533 16.65 29.8467 15.91 29.8467C15.2933 29.8467 14.6767 29.4767 14.1833 28.9833L7.27667 20.35C6.78333 19.61 6.78333 18.6233 7.4 18.0067C8.14 17.2667 9.25 17.2667 9.86667 17.8833L15.7867 23.1867L26.27 8.75667C26.7633 8.01667 27.8733 7.89333 28.6133 8.38667C29.3533 8.75667 29.4767 9.86667 28.9833 10.6067Z" fill="#4CA90C"/>
</svg>
